<svg width="150" height="153" viewBox="0 0 150 153" fill="none" xmlns="http://www.w3.org/2000/svg">
<ellipse cx="73.9399" cy="77.9399" rx="71.5" ry="74.5" fill="white"/>
<path d="M51.1803 149.091C53.4847 148.073 55.0988 145.722 55.0988 142.986V125.029C55.0988 124.374 55.1507 123.693 55.2317 123.001C55.1863 123.014 55.1442 123.024 55.0988 123.034C55.0988 123.034 45.3755 123.034 43.4308 123.034C38.5692 123.034 34.3557 121.039 32.4111 117.049C30.1423 112.726 29.17 105.41 23.336 101.42C22.3636 100.755 23.0119 99.7575 24.9565 99.7575C26.9012 100.09 31.1146 102.75 33.7075 106.408C36.6245 110.066 39.5415 113.059 44.7273 113.059C52.7879 113.059 57.1083 112.643 59.7077 111.213C62.7349 106.594 66.9256 103.083 71.3044 103.083V103C52.9338 102.394 41.1977 96.1297 35.7332 86.4565C23.8545 86.5962 13.5122 87.8032 7.61012 88.8075C7.42213 87.7201 7.26008 86.6261 7.12071 85.5254C12.945 84.5412 22.8174 83.374 34.1677 83.1512C33.8047 82.2334 33.4904 81.2924 33.2246 80.3281C21.8451 79.7362 12.0245 80.1984 6.68964 80.6506C6.62482 79.5466 6.53731 78.446 6.52435 77.3287C11.8689 76.8798 21.4237 76.4309 32.5115 76.9596C32.2555 75.297 32.0902 73.5978 32.0902 71.8287C32.0902 66.1758 34.0349 60.1904 37.6001 55.2025C35.9795 49.5496 33.7107 37.5787 38.2483 33.2558C46.9993 33.2558 53.1574 37.5786 56.0744 40.2388C61.581 37.9078 67.7391 36.5778 74.5455 36.5778C81.3518 36.5778 87.5099 37.9079 92.6957 40.2355C95.6127 37.5753 101.771 33.2525 110.522 33.2525C115.383 37.9079 112.791 49.8788 111.17 55.1992C114.735 60.187 116.68 65.84 116.356 71.8254C116.356 73.4348 116.21 74.9877 115.999 76.5107C127.34 75.9387 137.154 76.3976 142.589 76.8499C142.583 77.9705 142.482 79.0645 142.424 80.1718C137.008 79.7129 126.948 79.2407 115.332 79.8758C115.043 80.9931 114.693 82.0805 114.278 83.1346C125.771 83.2875 135.88 84.4281 141.983 85.4257C141.844 86.5297 141.682 87.6237 141.494 88.7077C135.297 87.6902 124.734 86.4997 112.716 86.4399C107.32 96.01 95.7974 102.251 77.7866 102.98V103.083C86.2134 103.083 93.9921 116.051 93.9921 125.029V142.986C93.9921 145.722 95.6062 148.073 97.9106 149.091C127.602 139.009 149.091 110.279 149.091 76.4808C149.091 34.3099 115.652 0 74.5455 0C33.4385 0 0 34.3099 0 76.4808C0 110.279 21.4885 139.009 51.1803 149.091Z" fill="black"/>
</svg>
