<svg width="150" height="153" viewBox="0 0 150 153" fill="none" xmlns="http://www.w3.org/2000/svg">
<path d="M74.545 0C33.3738 0 0 34.1237 0 76.22C0 118.316 33.3738 152.44 74.545 152.44C115.716 152.44 149.09 118.316 149.09 76.22C149.09 34.1237 115.716 0 74.545 0Z" fill="#0078D4"/>
<path opacity="0.05" d="M96.9084 118.141V83.8418C96.9084 79.6383 93.5651 76.2198 89.4539 76.2198C85.3428 76.2198 81.9994 79.6383 81.9994 83.8418V118.141H59.6359V53.3538H81.9994V57.2677C85.8758 54.7219 90.3932 53.3538 95.0448 53.3538C108.403 53.3538 119.272 64.4667 119.272 78.1253V118.141H96.9084ZM33.5452 118.141V53.3538H44.6002C38.193 53.3538 33.5452 48.5443 33.5452 41.917C33.5452 35.2935 38.2676 30.4878 44.7679 30.4878C51.0893 30.4878 55.7745 35.2592 55.9087 41.8408C55.9087 48.5253 51.1862 53.3538 44.6822 53.3538H55.9087V118.141H33.5452Z" fill="black"/>
<path opacity="0.07" d="M98.7722 116.235V83.8418C98.7722 78.5903 94.5939 74.3143 89.4541 74.3143C84.3142 74.3143 80.1359 78.5903 80.1359 83.8418V116.235H61.4997V55.2593H80.1359V61.1054C84.1986 57.382 89.4988 55.2593 95.0449 55.2593C107.378 55.2593 117.408 65.5147 117.408 78.1253V116.235H98.7722ZM35.4089 116.235V55.2593H54.0452V116.235H35.4089ZM44.6003 51.4483C39.2741 51.4483 35.4089 47.4391 35.4089 41.917C35.4089 36.3987 39.3449 32.3933 44.7681 32.3933C50.1204 32.3933 53.9334 36.292 54.0452 41.8789C54.0452 47.4391 50.1055 51.4483 44.6823 51.4483H44.6003Z" fill="black"/>
<path d="M37.2727 57.1651H52.1817V114.33H37.2727V57.1651ZM44.6825 49.5431H44.6005C40.1501 49.5431 37.2727 46.1513 37.2727 41.9173C37.2727 37.5918 40.2396 34.2991 44.7682 34.2991C49.3043 34.2991 52.096 37.5918 52.1817 41.9173C52.1817 46.1513 49.3043 49.5431 44.6825 49.5431ZM115.545 78.1256C115.545 66.5478 106.368 57.1651 95.0451 57.1651C88.1049 57.1651 81.9811 60.7017 78.2725 66.0981V57.1651H63.3635V114.33H78.2725V83.8421C78.2725 77.5272 83.2782 72.4091 89.4542 72.4091C95.6303 72.4091 100.636 77.5272 100.636 83.8421V114.33H115.545C115.545 114.33 115.545 79.73 115.545 78.1256Z" fill="white"/>
</svg>
